<?xml version="1.0" standalone="no"?>
<!DOCTYPE svg PUBLIC "-//W3C//DTD SVG 20010904//EN"
 "http://www.w3.org/TR/2001/REC-SVG-20010904/DTD/svg10.dtd">
<svg version="1.0" xmlns="http://www.w3.org/2000/svg"
 width="421.000000pt" height="421.000000pt" viewBox="0 0 421.000000 421.000000"
 preserveAspectRatio="xMidYMid meet">
<metadata>
Created by potrace 1.14, written by Peter Selinger 2001-2017
</metadata>
<g transform="translate(0.000000,421.000000) scale(0.100000,-0.100000)"
fill="#000000" stroke="none">
<path d="M2120 3752 c-163 -20 -296 -72 -368 -143 -40 -40 -92 -131 -92 -163
0 -36 -10 -43 -50 -36 -33 6 -47 2 -87 -21 -26 -15 -57 -40 -68 -55 -11 -15
-26 -33 -32 -40 -7 -7 -13 -17 -13 -23 0 -6 -4 -11 -9 -11 -7 0 -47 -95 -57
-135 -12 -45 -14 -71 -15 -145 0 -55 6 -101 16 -130 22 -61 23 -68 13 -115
-15 -61 -16 -68 -23 -126 -6 -46 -13 -157 -15 -221 0 -10 -6 -18 -13 -18 -8 0
-24 -9 -37 -20 -13 -11 -20 -20 -15 -20 4 0 2 -6 -4 -14 -6 -7 -14 -33 -16
-57 -6 -44 -5 -316 0 -527 2 -83 -1 -116 -10 -126 -10 -10 -12 -31 -7 -77 18
-188 -4 -276 -93 -374 -78 -87 -134 -169 -155 -228 -51 -146 5 -409 114 -534
37 -43 135 -98 191 -108 34 -6 184 -7 230 -1 17 2 64 7 105 10 122 11 202 45
254 110 33 41 37 77 13 125 -15 31 -15 34 3 53 25 27 48 96 44 131 -1 15 -12
38 -23 52 l-19 26 34 33 c68 66 50 160 -36 189 -8 2 -1 2 15 0 144 -24 289 -5
507 66 231 75 345 142 493 286 61 60 103 93 115 92 11 -1 20 -5 20 -9 0 -4 7
-8 15 -8 8 0 15 -4 15 -8 0 -11 25 -12 64 -5 32 6 136 97 136 119 0 8 3 14 8
14 13 0 101 153 120 210 24 70 27 155 8 200 -16 39 -55 80 -80 84 -19 3 -19 5
-12 26 4 13 30 107 41 150 2 8 4 16 5 18 2 1 4 7 5 12 1 6 4 12 5 15 1 3 3 8
5 13 2 9 14 38 35 87 27 63 59 156 67 200 14 71 7 295 -10 350 l-16 50 27 30
c15 16 30 32 33 35 18 16 35 61 45 125 l5 30 -38 -42 c-41 -46 -85 -67 -118
-58 -11 3 -42 34 -69 70 -53 67 -227 242 -285 285 -19 14 -47 35 -62 48 -15
12 -32 22 -38 22 -6 0 -11 4 -11 8 0 5 -18 17 -40 28 -22 10 -40 22 -40 27 0
4 -7 7 -15 7 -8 0 -15 4 -15 9 0 5 -10 13 -22 17 -13 4 -25 10 -28 13 -5 6
-78 44 -90 46 -3 1 -22 9 -43 18 -33 14 -91 33 -132 43 -5 1 -23 5 -40 10 -30
7 -297 12 -345 6z m-641 -2538 c36 -39 38 -45 19 -42 -20 3 -68 59 -68 79 0
15 5 11 49 -37z"/>
</g>
</svg>
